<svg xmlns="http://www.w3.org/2000/svg" viewBox="0 0 64 64">
  <rect width="64" height="64" rx="13" fill="#0a0c14"/>
  <!-- Komyo Games mascot (matches the hero header logo) -->
  <path d="M13 24 L17 5 L31 16 Z" fill="#e8632a"/>
  <path d="M51 24 L47 5 L33 16 Z" fill="#e8632a"/>
  <path d="M17 19 L19 9 L26 15 Z" fill="#ffd9b0"/>
  <path d="M47 19 L45 9 L38 15 Z" fill="#ffd9b0"/>
  <path d="M12 35 Q12 13 32 13 Q52 13 52 35 L52 45 Q52 41 48 41 L16 41 Q12 41 12 45 Z" fill="#f0712f"/>
  <ellipse cx="32" cy="35" rx="16" ry="15" fill="#ffe3c8"/>
  <path d="M16 31 Q18 19 32 19 Q46 19 48 31 Q44 25 38 26 Q40 29 36 30 Q33 25 28 27 Q30 30 24 29 Q20 27 16 31 Z" fill="#ff7a3c"/>
  <ellipse cx="25" cy="37" rx="2.6" ry="3.5" fill="#3a2a1a"/>
  <ellipse cx="39" cy="37" rx="2.6" ry="3.5" fill="#3a2a1a"/>
  <circle cx="26" cy="35.6" r="1" fill="#fff"/>
  <circle cx="40" cy="35.6" r="1" fill="#fff"/>
  <circle cx="20.5" cy="41" r="2.3" fill="#ff9ba0" opacity=".7"/>
  <circle cx="43.5" cy="41" r="2.3" fill="#ff9ba0" opacity=".7"/>
  <path d="M29 43 Q32 46 35 43" stroke="#7a4a2a" stroke-width="1.6" fill="none" stroke-linecap="round"/>
</svg>
